<svg width="46" height="47" viewBox="0 0 46 47" fill="none" xmlns="http://www.w3.org/2000/svg">
<path d="M17.824 28.0332L22.4381 29.4512L20.3516 31.5377L20.1619 31.7275L16.9891 30.7552C13.9751 29.8302 11.7228 27.4522 10.9617 24.3934C10.2005 21.3347 11.0756 18.1787 13.3046 15.9498L25.7411 3.50818C25.7793 3.52497 25.8169 3.54379 25.8525 3.56516C25.8907 3.58398 25.9283 3.60535 25.9639 3.62469C26.028 3.65776 26.0896 3.69592 26.1537 3.73153C26.2153 3.76714 26.2768 3.80479 26.3389 3.8455C26.3888 3.87653 26.4361 3.90706 26.4834 3.94013C26.5307 3.97116 26.578 4.00423 26.6259 4.03985C26.6711 4.07088 26.7134 4.10395 26.7561 4.13702C26.7943 4.16297 26.8319 4.19401 26.8675 4.22453C26.9006 4.24845 26.9316 4.27439 26.9622 4.30289C26.9667 4.30543 26.9718 4.30746 26.9764 4.31255C27.1189 4.4311 27.2537 4.55422 27.3865 4.68701L27.9889 5.2894L15.3153 17.961C13.8001 19.4787 13.2048 21.6242 13.7218 23.7061C14.2387 25.788 15.7726 27.4049 17.824 28.0332Z" fill="#1A1A1A"/>
<path d="M19.1825 23.8648L26.1583 25.731L23.8347 28.0546L18.4473 26.6127C16.9133 26.2047 15.7538 25.0452 15.3412 23.5112C14.9311 21.9773 15.3554 20.3929 16.4768 19.2716L29.2242 6.5242L31.2374 8.53743L18.49 21.2823C18.3333 21.441 18.2148 21.6211 18.1369 21.8206C18.0209 22.1243 18.0041 22.4535 18.0896 22.776C18.1064 22.8402 18.1278 22.9017 18.1537 22.9612C18.3364 23.4069 18.7088 23.7392 19.183 23.8648H19.1825Z" fill="#1A1A1A"/>
<path d="M32.6961 31.0493L20.257 43.4909L18.5144 45.2334C17.9477 44.8875 17.419 44.4698 16.9377 43.9885L16.3353 43.3861L18.0118 41.7097L30.6854 29.0381C32.2031 27.5204 32.7983 25.3723 32.2789 23.293C31.7594 21.2111 30.228 19.5942 28.1766 18.9658L23.5645 17.5504L23.7543 17.3606L25.8408 15.2741L29.0135 16.2464C32.027 17.1714 34.2799 19.5494 35.041 22.6082C35.7996 25.6669 34.925 28.8229 32.6961 31.0493Z" fill="white"/>
<path d="M29.5233 27.73L16.7785 40.4774L15.1021 42.1538L13.0888 40.1406L14.7653 38.4642L27.5126 25.7193C27.6714 25.558 27.7899 25.3779 27.8637 25.1785C27.9797 24.8748 27.9965 24.5456 27.911 24.225C27.8942 24.1609 27.8729 24.0994 27.8495 24.0399C27.6693 23.5942 27.2944 23.2619 26.8182 23.1342L19.8444 21.2706L20.0387 21.0762L21.9736 19.1414L22.168 18.947L27.5528 20.3838C29.0868 20.7964 30.2463 21.9559 30.6589 23.4878C31.069 25.0218 30.6447 26.6082 29.5233 27.73Z" fill="white"/>
<path d="M43.6291 23.4995C43.6291 25.1571 42.984 26.715 41.8128 27.8862L27.3864 42.3125C26.2152 43.4837 24.6573 44.1289 22.9998 44.1289C22.9026 44.1289 22.8054 44.1263 22.7103 44.1218H22.6818C22.606 44.1172 22.5322 44.1121 22.4589 44.105C22.433 44.1024 22.4091 44.1004 22.3831 44.0978C22.3098 44.0907 22.2386 44.0836 22.1648 44.0719C22.1531 44.0719 22.1409 44.0693 22.1292 44.0673C22.0982 44.0648 22.0651 44.0602 22.0321 44.0556C21.9491 44.0414 21.8682 44.0271 21.7878 44.0129C21.7761 44.0083 21.7639 44.0058 21.7548 44.0058C21.6815 43.989 21.6077 43.9727 21.5365 43.9559C21.4678 43.9391 21.3991 43.9228 21.3305 43.9015C21.2831 43.8898 21.2379 43.8755 21.1931 43.8633C21.1127 43.8394 21.0318 43.8134 20.9535 43.7849C20.9295 43.7753 20.9061 43.7682 20.8822 43.759C20.8751 43.7565 20.8705 43.7544 20.8634 43.7519C20.7947 43.728 20.7281 43.702 20.6619 43.6735C20.6334 43.6639 20.6049 43.6496 20.5764 43.6379C20.4793 43.5952 20.3821 43.5524 20.2849 43.5051C20.2753 43.5005 20.2661 43.4955 20.2564 43.4909L32.6955 31.0493C34.9245 28.8228 35.7995 25.6669 35.0405 22.6081C34.2793 19.5494 32.0265 17.1709 29.013 16.2464L25.8403 15.2741L23.7538 17.3606L23.564 17.5504L28.176 18.9658C30.2269 19.5942 31.7588 21.211 32.2783 23.293C32.7978 25.3723 32.2025 27.5209 30.6848 29.0381L18.0112 41.7096L16.3348 43.3861L15.102 42.1533L16.7784 40.4769L29.5233 27.7295C30.6446 26.6081 31.0695 25.0218 30.6589 23.4873C30.2463 21.9554 29.0868 20.7959 27.5528 20.3833L22.1679 18.9465L21.9735 19.1408L20.0387 21.0757L19.8443 21.2701L26.8181 23.1337C27.2948 23.2619 27.6693 23.5936 27.8494 24.0393C27.8733 24.0989 27.8947 24.1604 27.911 24.2245C27.9964 24.5445 27.9797 24.8742 27.8637 25.178C27.7904 25.3769 27.6713 25.5575 27.5126 25.7188L14.7652 38.4637L4.18723 27.8857C3.01603 26.7145 2.3709 25.1566 2.3709 23.499C2.3709 21.8414 3.01603 20.2835 4.18723 19.1123L18.6136 4.68701C19.7848 3.5158 21.3427 2.87067 23.0003 2.87067C23.0974 2.87067 23.1946 2.87322 23.2898 2.8778H23.3182C23.418 2.88238 23.5172 2.89204 23.6169 2.90171C23.6973 2.90883 23.7782 2.9185 23.8565 2.9302C23.8708 2.9302 23.8825 2.93274 23.8947 2.93478C23.9257 2.93732 23.9542 2.9419 23.9822 2.94648C24.058 2.95818 24.1318 2.97243 24.205 2.98668C24.2193 2.98922 24.231 2.99125 24.2452 2.9938C24.3185 3.01059 24.3897 3.02687 24.4635 3.04366C24.5322 3.06045 24.6009 3.07673 24.6696 3.0981C24.7052 3.10776 24.7428 3.11692 24.7784 3.12913C24.8329 3.14592 24.8873 3.1622 24.9423 3.18154C25.0491 3.21715 25.158 3.2548 25.2623 3.29754C25.3167 3.31433 25.3691 3.3357 25.421 3.36164C25.4755 3.38301 25.5299 3.40692 25.5823 3.43287C25.6367 3.45678 25.6891 3.48273 25.741 3.50868L13.3045 15.9503C11.0756 18.1792 10.2005 21.3352 10.9616 24.3939C11.7227 27.4527 13.9751 29.8312 16.9891 30.7557L20.1618 31.728L20.3516 31.5382L22.4381 29.4517L17.824 28.0337C15.7731 27.4054 14.2386 25.788 13.7217 23.7066C13.2048 21.6247 13.8001 19.4787 15.3152 17.9615L27.9888 5.28991L29.2241 6.52521L16.4767 19.2726C15.3554 20.394 14.9306 21.9783 15.3411 23.5122C15.7538 25.0462 16.9133 26.2057 18.4472 26.6137L23.8347 28.0556L26.1582 25.732L19.1824 23.8658C18.7082 23.7402 18.3358 23.4084 18.1531 22.9623C18.1272 22.9027 18.1058 22.8412 18.089 22.7771C18.0036 22.4545 18.0204 22.1248 18.1364 21.8216C18.2147 21.6226 18.3333 21.442 18.4894 21.2833L31.2368 8.53844L41.8123 19.1139C42.9835 20.2851 43.6286 21.8429 43.6286 23.5005L43.6291 23.4995Z" fill="#213147"/>
<path d="M43.4892 17.4344L32.9138 6.85897L30.9005 4.84574L29.0654 3.01059C28.5841 2.52929 28.0529 2.11209 27.4861 1.76561C26.1511 0.940377 24.61 0.499268 22.9997 0.499268C20.7092 0.499268 18.5561 1.39064 16.9367 3.01008L2.51081 17.4344C0.891376 19.0564 0 21.2095 0 23.5C0 25.7905 0.891376 27.9437 2.51081 29.5657L13.0888 40.1411L14.7652 38.4647L4.18723 27.8867C3.01603 26.7155 2.3709 25.1576 2.3709 23.5C2.3709 21.8424 3.01603 20.2846 4.18723 19.1134L18.6136 4.68701C19.7848 3.5158 21.3427 2.87067 23.0003 2.87067C23.0974 2.87067 23.1946 2.87322 23.2897 2.8778H23.3182C23.418 2.88238 23.5172 2.89204 23.6169 2.90171C23.6973 2.90883 23.7782 2.9185 23.8565 2.9302C23.8708 2.9302 23.8825 2.93275 23.8947 2.93478C23.9257 2.93732 23.9542 2.9419 23.9822 2.94648C24.058 2.95818 24.1318 2.97243 24.205 2.98668C24.2193 2.98922 24.231 2.99125 24.2452 2.9938C24.3185 3.01059 24.3897 3.02687 24.4635 3.04366C24.5322 3.06045 24.6009 3.07673 24.6695 3.0981C24.7052 3.10776 24.7428 3.11692 24.7784 3.12913C24.8329 3.14592 24.8873 3.1622 24.9423 3.18154C25.0491 3.21715 25.158 3.2548 25.2623 3.29754C25.3167 3.31433 25.3691 3.3357 25.421 3.36164C25.4755 3.38301 25.5299 3.40692 25.5823 3.43287C25.6367 3.45679 25.6891 3.48273 25.741 3.50868L13.3045 15.9503C11.0756 18.1792 10.2005 21.3352 10.9616 24.394C11.7227 27.4527 13.9751 29.8312 16.9891 30.7557L20.1618 31.728L20.3516 31.5382L22.4381 29.4517L17.824 28.0337C15.7731 27.4054 14.2386 25.788 13.7217 23.7066C13.2048 21.6247 13.8001 19.4787 15.3152 17.9615L27.9888 5.28991L27.972 5.27312L29.2241 6.52522L16.4767 19.2726C15.3554 20.394 14.9306 21.9783 15.3411 23.5122C15.7538 25.0462 16.9133 26.2057 18.4472 26.6137L23.8346 28.0556L26.1582 25.732L19.1824 23.8658C18.7082 23.7402 18.3358 23.4085 18.1531 22.9623C18.1272 22.9027 18.1058 22.8412 18.089 22.7771C18.0036 22.4545 18.0204 22.1248 18.1364 21.8216C18.2147 21.6226 18.3332 21.442 18.4894 21.2833L31.2368 8.53844L41.8123 19.1139C42.9835 20.2851 43.6286 21.8429 43.6286 23.5005C43.6286 25.1581 42.9835 26.716 41.8123 27.8872L27.3859 42.3136C26.2147 43.4848 24.6568 44.1299 22.9992 44.1299C22.9021 44.1299 22.8049 44.1274 22.7097 44.1228H22.6813C22.6054 44.1182 22.5317 44.1131 22.4584 44.106C22.4325 44.1034 22.4085 44.1014 22.3826 44.0989C22.3093 44.0917 22.2381 44.0846 22.1643 44.0729C22.1526 44.0729 22.1404 44.0704 22.1287 44.0683C22.0977 44.0658 22.0646 44.0612 22.0315 44.0566C21.9486 44.0424 21.8677 44.0281 21.7873 44.0139C21.7756 44.0093 21.7634 44.0068 21.7543 44.0068C21.681 43.99 21.6072 43.9737 21.536 43.9569C21.4673 43.9401 21.3986 43.9238 21.3299 43.9025C21.2826 43.8908 21.2373 43.8765 21.1926 43.8643C21.1122 43.8404 21.0313 43.8145 20.9529 43.786C20.929 43.7763 20.9056 43.7692 20.8817 43.76C20.8746 43.7575 20.87 43.7554 20.8629 43.7529C20.7942 43.729 20.7276 43.703 20.6614 43.6745C20.6329 43.6649 20.6044 43.6506 20.5759 43.6389C20.4788 43.5962 20.3816 43.5535 20.2844 43.5061C20.2747 43.5016 20.2656 43.4965 20.2559 43.4919L18.5134 45.2345C19.8484 46.0597 21.3895 46.5008 22.9997 46.5008C25.2903 46.5008 27.4434 45.6094 29.0654 43.99L43.4892 29.5662C45.1086 27.9442 46 25.7911 46 23.5005C46 21.21 45.1086 19.0569 43.4892 17.4349V17.4344Z" fill="#E3066E"/>
</svg>
